<?xml version="1.0" encoding="utf-8"?>
<!-- Generator: Adobe Illustrator 19.1.0, SVG Export Plug-In . SVG Version: 6.00 Build 0)  -->
<svg version="1.1" id="Layer_1" xmlns="http://www.w3.org/2000/svg" xmlns:xlink="http://www.w3.org/1999/xlink" x="0px" y="0px"
	 width="792px" height="612px" viewBox="140 -50 792 612" style="enable-background:new 140 -50 792 612;" xml:space="preserve">
<style type="text/css">
	.st0{fill:#B8D30B;}
	.st1{fill:#FFFFFF;}
</style>
<circle class="st0" cx="536" cy="256" r="305.5"/>
<path class="st1" d="M643,149v235.4H429V149h32.1c13.2,0,23.3-11.6,32.1-21.4h85.6c8.8,9.8,18.9,21.4,32.1,21.4H643z M525.3,159.7
	c0,5.9,4.8,10.7,10.7,10.7s10.7-4.8,10.7-10.7S541.9,149,536,149S525.3,153.8,525.3,159.7z M621.6,170.4h-42.8l-21.4,21.4h-41.7
	l-22.5-21.4h-42.8V363h171.2V170.4z M482.5,274.5l9.1-8.5c10.7,5.2,17.5,9.1,29.5,17.7c22.6-25.7,37.6-38.7,65.3-56l3,6.8
	c-22.9,20-39.7,42.3-63.8,85.6C510.7,302.7,500.8,291.5,482.5,274.5z"/>
</svg>
